<svg xmlns="http://www.w3.org/2000/svg" viewBox="0 0 512 512">
  <rect width="512" height="512" rx="112" ry="112" fill="#7c2d12"/>
  <path transform="translate(256,256) scale(0.18573,-0.18573) translate(-945.368,-80.000)" d="M272 213Q359 111 522 105Q572 103 561 44Q550 -15 522 -15Q478 -16 438.5 -7.0Q399 2 364 18Q364 -77 320 -112Q300 -127 281 -111Q223 -59 209 41Q155 34 112 -11Q107 -33 122 -130Q176 -491 163 -550Q154 -588 133 -588Q113 -588 111 -543Q110 -508 100.5 -438.0Q91 -368 74 -262Q39 -48 76 43Q113 135 223 185Q244 246 272 213ZM534 222Q561 330 665 330Q689 330 726.0 318.5Q763 307 812 283Q836 272 868.0 263.0Q900 254 941 248Q982 242 1022.0 241.0Q1062 240 1101 244Q1134 248 1127 222L1105 148Q1099 131 1077 132Q1057 134 1040.0 135.0Q1023 136 1008 137Q995 100 1133 103Q1191 104 1166 18Q1156 -12 1134 -15Q1053 -25 1002 -7Q933 18 965 134Q883 126 814 100Q779 87 738.5 69.5Q698 52 653 29Q562 -16 522 -15Q499 -15 488 12Q477 39 484 69Q491 99 520 105Q605 120 665 145Q696 158 720.0 166.5Q744 175 763 180Q622 227 566 198Q547 188 538 192Q528 196 534 222ZM793 -30Q799 -22 810 -25Q830 -32 848.5 -43.0Q867 -54 883 -68Q891 -76 886 -86L838 -162Q831 -172 820 -164Q810 -156 748 -119Q737 -112 744 -102ZM1498 105Q1536 105 1542 74Q1543 69 1543.5 63.5Q1544 58 1543 53Q1532 -15 1499 -15Q1397 -15 1312 87Q1197 -15 1132 -15Q1096 -15 1087 35Q1078 85 1110 100Q1122 105 1132 105Q1195 106 1240 133Q1221 148 1157 157Q1136 160 1140 185Q1148 226 1197 265Q1291 337 1407 271Q1465 237 1456 197Q1447 160 1387 125Q1403 115 1431.0 110.5Q1459 106 1498 105ZM1731 333Q1805 331 1833 149Q1836 132 1827 121L1778 57Q1765 41 1743 45Q1662 65 1610 117Q1568 -14 1498 -15Q1478 -15 1469 14Q1460 43 1460 67Q1460 91 1481 101Q1485 103 1489.5 104.0Q1494 105 1498 105Q1552 108 1588 161Q1593 169 1608.5 194.5Q1624 220 1648 263Q1687 333 1731 333ZM1659 220Q1694 186 1749 174Q1750 217 1720 231Q1690 245 1659 220Z" fill="#f4ecd8"/>
</svg>
